<?xml version="1.0" encoding="UTF-8" standalone="no"?>
<!-- Created with Inkscape (http://www.inkscape.org/) -->

<svg
   width="1024"
   height="1024"
   viewBox="0 0 270.93334 270.93334"
   version="1.1"
   id="svg1"
   inkscape:version="1.4 (e7c3feb1, 2024-10-09)"
   sodipodi:docname="Logo iOS-Tinted.svg"
   inkscape:export-filename="iOSTintedLogo1024.png"
   inkscape:export-xdpi="96"
   inkscape:export-ydpi="96"
   xmlns:inkscape="http://www.inkscape.org/namespaces/inkscape"
   xmlns:sodipodi="http://sodipodi.sourceforge.net/DTD/sodipodi-0.dtd"
   xmlns:xlink="http://www.w3.org/1999/xlink"
   xmlns="http://www.w3.org/2000/svg"
   xmlns:svg="http://www.w3.org/2000/svg">
  <sodipodi:namedview
     id="namedview1"
     pagecolor="#505050"
     bordercolor="#eeeeee"
     borderopacity="1"
     inkscape:showpageshadow="0"
     inkscape:pageopacity="0"
     inkscape:pagecheckerboard="0"
     inkscape:deskcolor="#505050"
     inkscape:document-units="px"
     inkscape:zoom="0.79533045"
     inkscape:cx="492.87689"
     inkscape:cy="531.8544"
     inkscape:window-width="1920"
     inkscape:window-height="1201"
     inkscape:window-x="0"
     inkscape:window-y="25"
     inkscape:window-maximized="0"
     inkscape:current-layer="layer1" />
  <defs
     id="defs1">
    <inkscape:path-effect
       effect="fillet_chamfer"
       id="path-effect9"
       is_visible="true"
       lpeversion="1"
       nodesatellites_param="F,0,0,1,0,0,0,1 @ F,0,0,1,0,0,0,1 @ F,0,0,1,0,0,0,1 @ F,0,0,1,0,0,0,1"
       radius="0"
       unit="px"
       method="auto"
       mode="F"
       chamfer_steps="1"
       flexible="false"
       use_knot_distance="true"
       apply_no_radius="true"
       apply_with_radius="true"
       only_selected="false"
       hide_knots="false" />
    <inkscape:path-effect
       effect="fillet_chamfer"
       id="path-effect8"
       is_visible="true"
       lpeversion="1"
       nodesatellites_param="F,0,0,1,0,0,0,1 @ F,0,0,1,0,0,0,1 @ F,0,0,1,0,0,0,1 @ F,0,0,1,0,0,0,1"
       radius="0"
       unit="px"
       method="auto"
       mode="F"
       chamfer_steps="1"
       flexible="false"
       use_knot_distance="true"
       apply_no_radius="true"
       apply_with_radius="true"
       only_selected="false"
       hide_knots="false" />
    <linearGradient
       id="linearGradient5"
       inkscape:collect="always">
      <stop
         style="stop-color:#a2a2a2;stop-opacity:1;"
         offset="0"
         id="stop5" />
      <stop
         style="stop-color:#d5d5d5;stop-opacity:1;"
         offset="1"
         id="stop6" />
    </linearGradient>
    <linearGradient
       inkscape:collect="always"
       xlink:href="#linearGradient5"
       id="linearGradient6"
       x1="199.26218"
       y1="40.735878"
       x2="75.850464"
       y2="223.78922"
       gradientUnits="userSpaceOnUse"
       gradientTransform="matrix(0.82453522,0,0,0.82453522,23.769633,23.769645)" />
  </defs>
  <g
     inkscape:label="Layer 1"
     inkscape:groupmode="layer"
     id="layer1">
    <path
       id="rect3"
       style="opacity:1;fill:#070505;fill-opacity:1;stroke:none;stroke-width:6.52937;stroke-linecap:round;stroke-linejoin:round;stroke-dasharray:none"
       d="m 14.365234,16.113281 0.689454,238.005859 c 80.504219,0.23351 161.009452,0.46572 241.513672,0.69922 -0.23011,-79.33495 -0.46131,-158.668955 -0.69141,-238.003907 z"
       inkscape:path-effect="#path-effect9"
       inkscape:original-d="m 14.365234,16.113281 0.689454,238.005859 c 80.504219,0.23351 161.009452,0.46572 241.513672,0.69922 -0.23011,-79.33495 -0.46131,-158.668955 -0.69141,-238.003907 z"
       transform="matrix(1.2859174,0,0,1.263628,-40.062977,-34.880915)" />
    <path
       style="color:#000000;fill:url(#linearGradient6);stroke-width:0.824538;stroke-linecap:round;-inkscape-stroke:none"
       d="m 168.94097,52.911811 c -2.7272,-0.07411 -5.52938,0.152959 -8.3452,0.645778 -11.26324,1.971277 -23.03121,8.028196 -32.55464,16.171841 -7.17375,6.134393 -13.77734,14.824286 -17.07847,22.647261 -5.7305,-6.598367 -8.23149,-11.381122 -11.862499,-16.751208 0.912759,6.731538 4.389089,11.818978 10.975119,19.933479 -0.30579,1.087887 -0.59262,2.179415 -0.78749,3.278816 -1.71936,9.699662 1.44122,19.704642 11.10062,27.802302 -25.817408,9.20271 -39.362445,22.054 -43.846913,35.61283 -4.704607,14.22442 0.630437,28.66305 10.583683,39.15737 9.953243,10.49431 24.5838,17.31875 39.21052,16.56801 37.41877,-1.23168 49.56326,-42.22999 44.41956,-39.04865 0.86851,2.43183 -12.44104,28.97838 -41.46757,33.92588 -13.1081,0.67281 -26.69528,-5.59228 -35.820583,-15.21365 -9.125301,-9.62136 -13.72874,-22.32527 -9.607766,-34.78507 4.120973,-12.4598 17.197309,-25.19138 44.801899,-34.20694 l 0.99836,-0.59745 -3.60734,-2.50259 c -11.15335,-7.7403 -14.10855,-16.69446 -12.46787,-25.950314 0.0446,-0.251787 0.13155,-0.506227 0.18358,-0.758507 4.79592,3.850291 10.09426,6.738191 15.64363,8.662451 12.15826,4.21591 25.37795,4.13901 36.83997,1.08382 11.46203,-3.0552 21.24772,-9.062866 26.35614,-17.217011 5.10842,-8.154146 5.04184,-18.58266 -2.81823,-28.673535 -5.16135,-6.626206 -12.66688,-9.562596 -20.84851,-9.784913 z m -2.28469,4.963812 c 7.13108,0.138619 13.27168,2.621221 17.56969,8.139064 7.02423,9.017797 6.83177,16.861201 2.56218,23.676399 -4.26961,6.815199 -13.11525,12.473314 -23.78269,15.316704 -10.66743,2.8434 -24.1312,2.82179 -35.34294,-1.06591 -5.66558,-1.96455 -11.62221,-5.708247 -13.78855,-9.142526 2.79203,-7.55757 7.59366,-14.885875 14.88107,-21.117456 8.97849,-7.677658 20.20784,-13.393286 30.47076,-15.189485 2.56573,-0.44905 5.05346,-0.662997 7.43048,-0.61679 z"
       id="path3"
       sodipodi:nodetypes="ssscccscsscccsscccscsssssssssscsss" />
    <path
       style="opacity:1;fill:none;fill-opacity:1;stroke:#4e0069;stroke-width:2.10614;stroke-linecap:butt;stroke-dasharray:none;stroke-opacity:1"
       d="m 109.7995,96.571831 c 0.63919,0.179826 2.96646,3.174204 3.7754,3.349231"
       id="path4"
       sodipodi:nodetypes="cc" />
  </g>
</svg>
